# xmcd CD database file
#
# Track frame offsets:
#	150
#	13202
#	22675
#	35655
#	49540
#	66845
#	80265
#	93642
#	108590
#	124042
#	139670
#	148975
#	164102
#	175617
#	191237
#	204710
#
# Disc length: 2867 seconds
#
# Revision: 0
# Processed by: cddbd v1.5.2PL0 Copyright (c) Steve Scherf et al.
# Submitted via: CDex 1.70beta2
#
DISCID=e70b3110
DTITLE=Various Artist - Great Jazz Vocal
DYEAR=1900
DGENRE=Jazz
TTITLE0=Eydie Gorme - The gift!
TTITLE1=Carol Sloane - Taking a chance on love
TTITLE2=Rosemary Clooney and Duke Ellington and His Orchestra - It don't mean a thing
TTITLE3=Jo Stafford With Paul Weston and His Orchestra - How high the moon
TTITLE4=Jo Stafford With Paul Weston and His Orchestra - Love for sale
TTITLE5=Jo Stafford - I'll remember april
TTITLE6=Anita O'Day - Georgea on my mind
TTITLE7=Mildred Bailey - Lover come back to me
TTITLE8=Jo Stafford - You'd be so nice to come home to
TTITLE9=Billie Holiday - I'm A Fool To Want You
TTITLE10=Carol Sloane - Night and day
TTITLE11=Jo Stafford - Stardust
TTITLE12=Carol Sloane - My melancholy baby
TTITLE13=Jo Stafford With The Art Van Damme Quintet - These foolish things
TTITLE14=Billie Holiday - Summertime
TTITLE15=Carmen McRae with The Dave Brubeck Quartet - Take five
EXTD=
EXTT0=
EXTT1=
EXTT2=
EXTT3=
EXTT4=
EXTT5=
EXTT6=
EXTT7=
EXTT8=
EXTT9=
EXTT10=
EXTT11=
EXTT12=
EXTT13=
EXTT14=
EXTT15=
PLAYORDER=
